<svg xmlns="http://www.w3.org/2000/svg" version="1.1" xmlns:xlink="http://www.w3.org/1999/xlink" xmlns:svgjs="http://svgjs.com/svgjs" width="512" height="512" x="0" y="0" viewBox="0 0 60 60" style="enable-background:new 0 0 512 512" xml:space="preserve" class=""><g><path xmlns="http://www.w3.org/2000/svg" d="m52.9 25 .188-.187a3.016 3.016 0 0 0 0-4.249l-12.039-12.038-16.466 16.474z" fill="#ffffff" data-original="#000000" class=""></path><path xmlns="http://www.w3.org/2000/svg" d="m16 32h6.001v4h-6.001z" fill="#ffffff" data-original="#000000" class=""></path><path xmlns="http://www.w3.org/2000/svg" d="m7.1 39.656 2.9-2.9v-5.652l-5.726 5.726z" fill="#ffffff" data-original="#000000" class=""></path><path xmlns="http://www.w3.org/2000/svg" d="m10 39.584-1.486 1.486 1.486 1.486z" fill="#ffffff" data-original="#000000" class=""></path><path xmlns="http://www.w3.org/2000/svg" d="m12 30v25a3 3 0 0 0 3 3h40a3 3 0 0 0 3-3v-25a3 3 0 0 0 -3-3h-40a3 3 0 0 0 -3 3zm2 11a1 1 0 0 1 2 0v2a1 1 0 0 1 -2 0zm5 11h-4a1 1 0 0 1 0-2h4a1 1 0 0 1 0 2zm0-4h-4a1 1 0 0 1 0-2h4a1 1 0 0 1 0 2zm1-5a1 1 0 0 1 -2 0v-2a1 1 0 0 1 2 0zm7 9h-4a1 1 0 0 1 0-2h4a1 1 0 0 1 0 2zm0-4h-4a1 1 0 0 1 0-2h4a1 1 0 0 1 0 2zm-5-5v-2a1 1 0 0 1 2 0v2a1 1 0 0 1 -2 0zm28-2a1 1 0 0 1 2 0v2a1 1 0 0 1 -2 0zm-4 0a1 1 0 0 1 2 0v2a1 1 0 0 1 -2 0zm-4 0a1 1 0 0 1 2 0v2a1 1 0 0 1 -2 0zm-4 0a1 1 0 0 1 2 0v2a1 1 0 0 1 -2 0zm-8 0a1 1 0 0 1 2 0v2a1 1 0 0 1 -2 0zm1 5h4a1 1 0 0 1 0 2h-4a1 1 0 0 1 0-2zm-5-5a1 1 0 0 1 2 0v2a1 1 0 0 1 -2 0zm-4-11a2 2 0 0 1 2 2v4a2 2 0 0 1 -2 2h-6a2 2 0 0 1 -2-2v-4a2 2 0 0 1 2-2z" fill="#ffffff" data-original="#000000" class=""></path><path xmlns="http://www.w3.org/2000/svg" d="m21.756 25 17.879-17.889-2.825-2.827-20.707 20.716z" fill="#ffffff" data-original="#000000" class=""></path><path xmlns="http://www.w3.org/2000/svg" d="m10.6 27.675a5 5 0 0 1 2.076-2.075l22.724-22.729a3.068 3.068 0 0 0 -4.228.006l-28.29 28.3a3.026 3.026 0 0 0 -.015 4.237z" fill="#ffffff" data-original="#000000" class=""></path></g></svg>